<svg width="185" height="36" viewBox="0 0 185 36" fill="none" xmlns="http://www.w3.org/2000/svg">
<path d="M18 36C27.9411 36 36 27.9411 36 18C36 8.05887 27.9411 0 18 0C8.05887 0 0 8.05887 0 18C0 27.9411 8.05887 36 18 36Z" fill="#FFCC4D"/>
<path d="M18 21C14.377 21 11.973 20.578 9 20C8.321 19.869 7 20 7 22C7 26 11.595 31 18 31C24.404 31 29 26 29 22C29 20 27.679 19.868 27 20C24.027 20.578 21.623 21 18 21Z" fill="#664500"/>
<path d="M9 22C9 22 12 23 18 23C24 23 27 22 27 22C27 22 25 26 18 26C11 26 9 22 9 22Z" fill="white"/>
<path d="M12 17C13.3807 17 14.5 15.433 14.5 13.5C14.5 11.567 13.3807 10 12 10C10.6193 10 9.5 11.567 9.5 13.5C9.5 15.433 10.6193 17 12 17Z" fill="#664500"/>
<path d="M24 17C25.3807 17 26.5 15.433 26.5 13.5C26.5 11.567 25.3807 10 24 10C22.6193 10 21.5 11.567 21.5 13.5C21.5 15.433 22.6193 17 24 17Z" fill="#664500"/>
<path d="M45.1719 24V9.9082H54.5078V12.3398H48.1211V15.7188H54.1465V18.0234H48.1211V21.5684H54.5078V24H45.1719ZM56.3926 24V13.5312H59.2441V15.2891H59.3027C59.7324 14.0977 60.8262 13.3164 62.2324 13.3164C63.6973 13.3164 64.7617 14.0977 65.1133 15.4746H65.1719C65.6406 14.1562 66.8906 13.3164 68.4238 13.3164C70.4746 13.3164 71.8516 14.7324 71.8516 16.8418V24H69V17.5547C69 16.3438 68.3945 15.6797 67.291 15.6797C66.207 15.6797 65.4941 16.4707 65.4941 17.6328V24H62.75V17.4668C62.75 16.3438 62.1152 15.6797 61.0605 15.6797C59.9766 15.6797 59.2441 16.5 59.2441 17.6816V24H56.3926ZM78.4629 24.2148C75.2793 24.2148 73.2773 22.1738 73.2773 18.7656V18.7461C73.2773 15.377 75.3281 13.3164 78.4531 13.3164C81.5879 13.3164 83.6484 15.3574 83.6484 18.7461V18.7656C83.6484 22.1836 81.627 24.2148 78.4629 24.2148ZM78.4727 21.9785C79.8594 21.9785 80.748 20.8066 80.748 18.7656V18.7461C80.748 16.7246 79.8398 15.5527 78.4531 15.5527C77.0762 15.5527 76.1777 16.7246 76.1777 18.7461V18.7656C76.1777 20.8164 77.0664 21.9785 78.4727 21.9785ZM86.5977 12.1836C85.7383 12.1836 85.0742 11.5098 85.0742 10.6992C85.0742 9.88867 85.7383 9.21484 86.5977 9.21484C87.457 9.21484 88.1211 9.88867 88.1211 10.6992C88.1211 11.5098 87.457 12.1836 86.5977 12.1836ZM84.2734 27.4473C84.0098 27.4473 83.668 27.4375 83.4922 27.418V25.2695C83.5996 25.2793 83.7266 25.2891 83.8535 25.2891C84.8008 25.2891 85.1719 24.9863 85.1719 24.1367V13.5312H88.0234V24.2148C88.0234 26.3438 86.7246 27.4473 84.2734 27.4473ZM91.4121 12.1836C90.5527 12.1836 89.8887 11.5098 89.8887 10.6992C89.8887 9.88867 90.5527 9.21484 91.4121 9.21484C92.2715 9.21484 92.9355 9.88867 92.9355 10.6992C92.9355 11.5098 92.2715 12.1836 91.4121 12.1836ZM89.9863 24V13.5312H92.8379V24H89.9863ZM98.9609 24V9.9082H101.91V16.3535H101.979L107.145 9.9082H110.426L105.377 16.1289L110.787 24H107.262L103.229 18.0527L101.91 19.6836V24H98.9609ZM115.865 24.2148C112.662 24.2148 110.719 22.1348 110.719 18.7852V18.7754C110.719 15.4453 112.682 13.3164 115.748 13.3164C118.814 13.3164 120.738 15.3965 120.738 18.5605V19.4395H113.531C113.561 21.1094 114.469 22.0859 115.924 22.0859C117.096 22.0859 117.809 21.4414 118.014 20.8555L118.033 20.7969H120.65L120.621 20.9043C120.299 22.4473 118.854 24.2148 115.865 24.2148ZM115.797 15.4453C114.625 15.4453 113.746 16.2266 113.561 17.6426H118.004C117.828 16.1973 116.979 15.4453 115.797 15.4453ZM123.463 27.4473C122.906 27.4473 122.34 27.3789 122.008 27.3203V25.2012C122.213 25.2402 122.545 25.2988 122.965 25.2988C123.814 25.2988 124.283 25.0547 124.537 24.3418L124.664 24L120.963 13.5312H124.098L126.305 21.7148H126.383L128.6 13.5312H131.607L128.014 24.1855C127.193 26.6562 125.787 27.4473 123.463 27.4473ZM138.805 24.2148C137.301 24.2148 136.148 23.4531 135.582 22.2129H135.523V24H132.672V9.9082H135.523V15.3477H135.582C136.158 14.0781 137.32 13.3164 138.814 13.3164C141.441 13.3164 143.072 15.3477 143.072 18.7559V18.7656C143.072 22.1641 141.441 24.2148 138.805 24.2148ZM137.857 21.8516C139.273 21.8516 140.172 20.6699 140.172 18.7656V18.7559C140.172 16.8418 139.273 15.6797 137.857 15.6797C136.48 15.6797 135.523 16.8711 135.523 18.7559V18.7656C135.523 20.6602 136.471 21.8516 137.857 21.8516ZM149.342 24.2148C146.158 24.2148 144.156 22.1738 144.156 18.7656V18.7461C144.156 15.377 146.207 13.3164 149.332 13.3164C152.467 13.3164 154.527 15.3574 154.527 18.7461V18.7656C154.527 22.1836 152.506 24.2148 149.342 24.2148ZM149.352 21.9785C150.738 21.9785 151.627 20.8066 151.627 18.7656V18.7461C151.627 16.7246 150.719 15.5527 149.332 15.5527C147.955 15.5527 147.057 16.7246 147.057 18.7461V18.7656C147.057 20.8164 147.945 21.9785 149.352 21.9785ZM159.117 24.166C157.018 24.166 155.602 22.8477 155.602 21.002V20.9824C155.602 19.0781 157.076 17.9648 159.674 17.7988L162.262 17.6426V16.998C162.262 16.0703 161.656 15.4941 160.543 15.4941C159.479 15.4941 158.834 15.9922 158.697 16.666L158.678 16.7539H156.07L156.08 16.6367C156.236 14.7031 157.896 13.3164 160.66 13.3164C163.365 13.3164 165.113 14.7129 165.113 16.8223V24H162.262V22.4375H162.203C161.607 23.5117 160.494 24.166 159.117 24.166ZM158.424 20.8555C158.424 21.627 159.059 22.0859 160.045 22.0859C161.324 22.0859 162.262 21.2656 162.262 20.1719V19.4199L160.104 19.5566C159 19.625 158.424 20.0938 158.424 20.8359V20.8555ZM166.959 24V13.5312H169.811V15.3574H169.869C170.182 14.0684 171.031 13.3164 172.252 13.3164C172.564 13.3164 172.857 13.3652 173.072 13.4238V15.9336C172.838 15.8359 172.447 15.7773 172.037 15.7773C170.631 15.7773 169.811 16.6172 169.811 18.1406V24H166.959ZM177.77 24.2148C175.133 24.2148 173.512 22.1641 173.512 18.7656V18.7559C173.512 15.3477 175.133 13.3164 177.77 13.3164C179.254 13.3164 180.426 14.0781 180.992 15.3477H181.051V9.9082H183.902V24H181.051V22.2129H180.992C180.436 23.4531 179.283 24.2148 177.77 24.2148ZM178.727 21.8516C180.113 21.8516 181.061 20.6602 181.061 18.7656V18.7559C181.061 16.8711 180.104 15.6797 178.727 15.6797C177.311 15.6797 176.412 16.8418 176.412 18.7559V18.7656C176.412 20.6699 177.301 21.8516 178.727 21.8516Z" fill="black"/>
</svg>
