<svg xmlns="http://www.w3.org/2000/svg"  viewBox="0 0 48 48" width="100px" height="100px" baseProfile="basic"><path fill="#babffc" d="M43,18H5c-2.206,0-4,1.794-4,4v14c0,2.206,1.794,4,4,4h38c2.206,0,4-1.794,4-4V22	C47,19.794,45.206,18,43,18z"/><path fill="#324561" d="M23.999,20c-0.205,0-0.413-0.063-0.592-0.194c-0.444-0.327-0.54-0.951-0.214-1.396l0,0	c0.106-0.146,2.578-3.607,0.143-5.773c-0.723-0.642-1.625-1.069-2.498-1.483c-2.485-1.178-5.303-2.513-2.759-8.541	c0.215-0.509,0.802-0.748,1.31-0.532c0.509,0.214,0.747,0.801,0.532,1.31c-1.799,4.264-0.604,4.83,1.773,5.957	c0.953,0.451,2.034,0.964,2.97,1.796c3.04,2.703,1.422,6.71,0.142,8.451C24.609,19.859,24.307,20,23.999,20z"/><path fill="#324561" d="M32,35H13c-0.553,0-1-0.447-1-1s0.447-1,1-1h19c0.553,0,1,0.447,1,1S32.553,35,32,35z"/><path fill="#324561" d="M9,35H7c-0.553,0-1-0.447-1-1s0.447-1,1-1h2c0.553,0,1,0.447,1,1S9.553,35,9,35z"/><path fill="#324561" d="M39,35h-3c-0.553,0-1-0.447-1-1s0.447-1,1-1h3c0.553,0,1,0.447,1,1S39.553,35,39,35z"/><path fill="#324561" d="M10,30H8c-0.553,0-1-0.447-1-1s0.447-1,1-1h2c0.553,0,1,0.447,1,1S10.553,30,10,30z"/><path fill="#324561" d="M16,30h-2c-0.553,0-1-0.447-1-1s0.447-1,1-1h2c0.553,0,1,0.447,1,1S16.553,30,16,30z"/><path fill="#324561" d="M22,30h-2c-0.553,0-1-0.447-1-1s0.447-1,1-1h2c0.553,0,1,0.447,1,1S22.553,30,22,30z"/><path fill="#324561" d="M28,30h-2c-0.553,0-1-0.447-1-1s0.447-1,1-1h2c0.553,0,1,0.447,1,1S28.553,30,28,30z"/><path fill="#324561" d="M34,30h-2c-0.553,0-1-0.447-1-1s0.447-1,1-1h2c0.553,0,1,0.447,1,1S34.553,30,34,30z"/><path fill="#324561" d="M41,30h-3c-0.553,0-1-0.447-1-1s0.447-1,1-1h3c0.553,0,1,0.447,1,1S41.553,30,41,30z"/><path fill="#324561" d="M9,25H7c-0.553,0-1-0.447-1-1s0.447-1,1-1h2c0.553,0,1,0.447,1,1S9.553,25,9,25z"/><path fill="#324561" d="M15,25h-2c-0.553,0-1-0.447-1-1s0.447-1,1-1h2c0.553,0,1,0.447,1,1S15.553,25,15,25z"/><path fill="#324561" d="M21,25h-2c-0.553,0-1-0.447-1-1s0.447-1,1-1h2c0.553,0,1,0.447,1,1S21.553,25,21,25z"/><path fill="#324561" d="M27,25h-2c-0.553,0-1-0.447-1-1s0.447-1,1-1h2c0.553,0,1,0.447,1,1S27.553,25,27,25z"/><path fill="#324561" d="M33,25h-2c-0.553,0-1-0.447-1-1s0.447-1,1-1h2c0.553,0,1,0.447,1,1S33.553,25,33,25z"/><path fill="#324561" d="M39,25h-2c-0.553,0-1-0.447-1-1s0.447-1,1-1h2c0.553,0,1,0.447,1,1S39.553,25,39,25z"/></svg>